<svg id="Layer_1" data-name="Layer 1" xmlns="http://www.w3.org/2000/svg" viewBox="0 0 979.92 979.92"><title>rail-logo</title><path d="M489.85,0C760.74,0,980,219.33,979.92,490.34,979.89,761,760.3,980,489.08,979.92,218.63,979.82-.22,760,0,488.58.22,219.09,219.87,0,489.85,0ZM167.67,398.06V675.51c2.38-.29,4.35-.46,6.29-.78,19.37-3.21,38.73-6.56,58.13-9.57,3.7-.57,5-1.67,4.93-5.56-.2-24.83-.14-49.65-.14-74.48,0-1.55.15-3.1.27-5.53,1.89,2.06,3.14,3.36,4.32,4.71q28.77,32.94,57.47,65.94c1.92,2.22,3.68,3.32,6.77,2.79,19.35-3.33,38.75-6.4,58.09-9.81a8.82,8.82,0,0,0,5.26-3.65q11.18-17.74,21.85-35.81a9.17,9.17,0,0,1,7.31-5c15.47-2.28,30.89-5,46.33-7.49,10.15-1.64,20.31-3.2,31.28-4.92v38.56l66.77-11V336.58c-1.78.16-3.26.19-4.71.43-16.92,2.77-33.82,5.66-50.76,8.28a9.91,9.91,0,0,0-7.67,5.26q-70.29,115.08-140.8,230c-1.09,1.79-2.28,3.52-3.68,5.67l-24.18-25.39,5.42-2.8c42.33-21.75,68.07-67.52,62.91-111.86-5.08-43.61-43.33-74-87-68.54-19.3,2.43-38.44,6.16-57.65,9.33C212.33,390.65,190.18,394.33,167.67,398.06ZM734,513.59V304.71L665.63,316V593.32c2-.18,3.64-.22,5.26-.48,45.47-7.51,90.92-15.15,136.42-22.43,4.74-.76,5.46-2.63,5.41-6.71-.17-16.66-.07-33.31-.07-50,0-4.13,0-8.27,0-13ZM637.7,598.26V320.58L569.4,331.87V609.49Z"/><path d="M236.55,523.73c0-6.18,0-11.48,0-16.78,0-18.15.08-36.31-.07-54.46,0-3.67.91-5.21,4.83-5.71,9.07-1.16,18-3.27,27.09-4.36a55.08,55.08,0,0,1,16.36.08c16.71,3.1,25.34,17.47,22.83,37-2.68,20.77-16.43,35.05-37.27,38.64C259.34,520,248.36,521.76,236.55,523.73Z"/><path d="M425,544.85l49.56-76.59a24.44,24.44,0,0,1,.7,3.72c0,20.16,0,40.32.07,60.48,0,3-.69,4.29-4,4.79C456.24,539.51,441.21,542.15,425,544.85Z"/></svg>